<svg xmlns="http://www.w3.org/2000/svg" width="24" height="24" viewBox="0 0 24 24" fill="none">
  <path d="M5.84977 3.50032C5.97495 3.35113 6.0372 3.1591 6.02334 2.96484C6.00947 2.77059 5.92059 2.58934 5.77549 2.45944C5.6304 2.32954 5.44046 2.26117 5.24586 2.2688C5.05126 2.27643 4.86725 2.35946 4.73277 2.50032C3.50424 3.87057 2.69 5.56146 2.38477 7.37632C2.35654 7.57038 2.40543 7.76777 2.52098 7.92622C2.63652 8.08466 2.80953 8.19155 3.00293 8.22398C3.19633 8.25641 3.39474 8.2118 3.55564 8.09971C3.71655 7.98762 3.82716 7.81697 3.86377 7.62432C4.12191 6.08933 4.81062 4.65919 5.84977 3.50032ZM19.2668 2.50032C19.2013 2.42625 19.1218 2.36586 19.0329 2.32262C18.944 2.27938 18.8474 2.25414 18.7488 2.24836C18.6501 2.24257 18.5512 2.25635 18.4579 2.28891C18.3645 2.32147 18.2785 2.37215 18.2049 2.43806C18.1312 2.50397 18.0712 2.58379 18.0285 2.67294C17.9858 2.76209 17.9611 2.85881 17.9559 2.95753C17.9507 3.05625 17.9651 3.15502 17.9981 3.24818C18.0312 3.34133 18.0824 3.42702 18.1488 3.50032C19.1882 4.65911 19.8773 6.08924 20.1358 7.62432C20.1687 7.82058 20.2782 7.99574 20.4402 8.11126C20.5204 8.16846 20.6111 8.2093 20.7071 8.23144C20.8032 8.25359 20.9026 8.2566 20.9998 8.24032C21.0969 8.22403 21.19 8.18877 21.2735 8.13654C21.3571 8.0843 21.4295 8.01613 21.4867 7.9359C21.5439 7.85567 21.5848 7.76496 21.6069 7.66894C21.629 7.57293 21.6321 7.4735 21.6158 7.37632C21.3099 5.56126 20.496 3.87036 19.2668 2.50032Z" fill="white"/>
  <path fill-rule="evenodd" clip-rule="evenodd" d="M11.9994 2.25C10.2092 2.25 8.49233 2.96116 7.22646 4.22703C5.96059 5.4929 5.24943 7.20979 5.24943 9V9.75C5.25251 11.7892 4.49723 13.7567 3.13043 15.27C3.04835 15.3611 2.98984 15.4708 2.96002 15.5898C2.9302 15.7087 2.92999 15.8331 2.9594 15.9521C2.98881 16.0711 3.04694 16.1811 3.12871 16.2724C3.21047 16.3638 3.31338 16.4337 3.42843 16.476C4.97243 17.046 6.58843 17.466 8.25943 17.719C8.22181 18.2331 8.29059 18.7495 8.4615 19.2359C8.6324 19.7222 8.90175 20.1681 9.25272 20.5457C9.60369 20.9233 10.0287 21.2245 10.5013 21.4304C10.9739 21.6364 11.4839 21.7427 11.9994 21.7427C12.5149 21.7427 13.0249 21.6364 13.4975 21.4304C13.9701 21.2245 14.3952 20.9233 14.7461 20.5457C15.0971 20.1681 15.3665 19.7222 15.5374 19.2359C15.7083 18.7495 15.7771 18.2331 15.7394 17.719C17.3874 17.4692 19.0058 17.0523 20.5694 16.475C20.6843 16.4326 20.787 16.3627 20.8687 16.2715C20.9503 16.1802 21.0084 16.0703 21.0377 15.9515C21.0671 15.8326 21.067 15.7084 21.0373 15.5896C21.0076 15.4708 20.9493 15.3611 20.8674 15.27C19.501 13.7565 18.7461 11.7891 18.7494 9.75V9C18.7494 7.20979 18.0383 5.4929 16.7724 4.22703C15.5065 2.96116 13.7896 2.25 11.9994 2.25ZM9.74943 18C9.74943 17.966 9.74943 17.933 9.75143 17.9C11.2471 18.0348 12.7518 18.0348 14.2474 17.9L14.2494 18C14.2494 18.5967 14.0124 19.169 13.5904 19.591C13.1685 20.0129 12.5962 20.25 11.9994 20.25C11.4027 20.25 10.8304 20.0129 10.4084 19.591C9.98648 19.169 9.74943 18.5967 9.74943 18Z" fill="white"/>
</svg>