<svg width="92" height="24" viewBox="0 0 92 24" fill="none" xmlns="http://www.w3.org/2000/svg">
<path d="M0.0679022 19.188L3.25731 7.41664C3.89174 5.21584 5.09068 3.42867 6.85154 2.05685C8.61327 0.685906 10.6055 0 12.8273 0H13.3037C15.5255 0 17.5168 0.685907 19.2786 2.05772C21.0403 3.42953 22.2384 5.21584 22.8728 7.4175L26.0622 19.1889C26.3799 21.1989 25.5857 22.5543 23.6816 23.2567C23.3959 23.3208 23.1102 23.352 22.8245 23.352C22.0942 23.352 21.4356 23.1283 20.8487 22.6817C20.2617 22.2352 19.8569 21.6446 19.6351 20.911L16.4931 11.9778C15.8587 10.351 14.7953 9.53766 13.3037 9.53766H12.8273C11.3357 9.53766 10.2723 10.351 9.63785 11.9778L6.49592 20.911C5.76568 22.8248 4.40101 23.607 2.40191 23.2558C0.529697 22.5222 -0.248017 21.166 0.0687653 19.188H0.0679022Z" fill="url(#paint0_linear_911_2782)"/>
<path d="M52.292 4.16313L49.1026 15.9345C48.4682 18.1353 47.2692 19.9225 45.5083 21.2943C43.7466 22.6661 41.7553 23.352 39.5335 23.352H39.057C36.8352 23.352 34.8439 22.6661 33.0822 21.2943C31.3205 19.9225 30.1224 18.1362 29.4879 15.9345L26.2985 4.16313C25.9809 2.1531 26.775 0.797767 28.6792 0.0953852C28.9649 0.031217 29.2506 0 29.5363 0C30.2665 0 30.9251 0.223722 31.5121 0.670298C32.099 1.11687 32.5039 1.7074 32.7257 2.44099L35.8676 11.3743C36.5021 13.001 37.5655 13.8144 39.057 13.8144H39.5335C41.0251 13.8144 42.0885 13.001 42.7229 11.3743L45.8648 2.44099C46.5951 0.52722 47.9597 -0.254939 49.9588 0.0962524C51.8311 0.829852 52.6088 2.18606 52.292 4.164V4.16313Z" fill="url(#paint1_linear_911_2782)"/>
<g clip-path="url(#clip0_911_2782)">
<path d="M57.0834 13.0046C56.8157 13.0046 56.577 12.8992 56.3661 12.6884C56.1828 12.5059 56.0918 12.2806 56.0918 12.0138C56.0918 11.7048 56.2322 11.4519 56.5137 11.2549C59.2564 9.27329 60.6278 7.10917 60.6278 4.76195V3.49709C60.6278 3.1598 60.7188 2.8996 60.9021 2.71709C61.0847 2.53459 61.3451 2.44304 61.6827 2.44304H61.7671C62.1046 2.44304 62.365 2.53459 62.5477 2.71709C62.7303 2.9002 62.8219 3.1598 62.8219 3.49709V4.76195C62.8219 5.57749 62.6815 6.40627 62.4 7.24951C63.2578 7.81208 64.098 8.43728 64.9215 9.12572C65.7443 9.81477 66.4296 10.4749 66.9782 11.1073C67.203 11.332 67.3157 11.5922 67.3157 11.8873C67.3157 12.1825 67.1891 12.4499 66.936 12.6884C66.7527 12.8571 66.549 12.9414 66.3241 12.9414C65.9727 12.9414 65.6629 12.7872 65.3959 12.4776C64.8051 11.8452 64.165 11.2302 63.476 10.6333C62.787 10.0358 62.1323 9.52626 61.5139 9.10464C60.67 10.496 59.4602 11.7048 57.8851 12.7306C57.6036 12.9137 57.3366 13.0046 57.0834 13.0046ZM61.1341 20.3511C60.0648 19.4307 59.5307 18.1623 59.5307 16.5456V15.7656C59.5307 15.4283 59.6223 15.1681 59.805 14.9856C59.9876 14.8031 60.248 14.7116 60.5856 14.7116H60.67C61.0075 14.7116 61.2679 14.8031 61.4506 14.9856C61.6332 15.1687 61.7249 15.4283 61.7249 15.7656V16.4613C61.7249 18.682 63.0679 19.7921 65.7545 19.7921C66.4435 19.7921 67.1891 19.7114 67.9909 19.5494C68.7926 19.388 69.5027 19.1669 70.1217 18.8856C70.2905 18.8152 70.4454 18.7802 70.5859 18.7802C70.839 18.7802 71.0566 18.879 71.2399 19.0754C71.4225 19.2723 71.5142 19.5181 71.5142 19.8132C71.5142 20.2071 71.2538 20.5161 70.7336 20.7408C69.9879 21.0642 69.1862 21.31 68.3284 21.4786C67.47 21.6472 66.6123 21.7316 65.7545 21.7316C63.743 21.7316 62.2029 21.2708 61.1341 20.3511ZM70.0584 15.6187C69.7209 15.6187 69.4605 15.5277 69.2778 15.3446C69.0946 15.1621 69.0035 14.9019 69.0035 14.5646V2.97007C69.0035 2.63277 69.0946 2.37257 69.2778 2.19007C69.4605 2.00757 69.7209 1.91602 70.0584 1.91602H70.1428C70.4804 1.91602 70.7402 2.00757 70.9234 2.19007C71.1061 2.37317 71.1977 2.63277 71.1977 2.97007V6.63816H73.2231C73.5606 6.63816 73.821 6.72249 74.0037 6.89114C74.1863 7.05978 74.278 7.2989 74.278 7.60789C74.278 7.91688 74.1863 8.15299 74.0037 8.31441C73.8204 8.47583 73.5606 8.55654 73.2231 8.55654H71.1977V14.5646C71.1977 14.9019 71.1061 15.1621 70.9234 15.3446C70.7402 15.5277 70.4804 15.6187 70.1428 15.6187H70.0584Z" fill="#231F20"/>
<path d="M75.2233 11.8247C75.2233 11.5434 75.3498 11.3326 75.603 11.1923C76.6718 10.5743 77.491 9.9485 78.0606 9.31607C78.6302 8.68364 78.9147 8.00905 78.9147 7.29229V6.87067H76.5307C75.8273 6.87067 75.4758 6.56168 75.4758 5.94311C75.4758 5.32453 75.8273 4.99446 76.5307 4.99446H83.2187C83.9215 4.99446 84.2735 5.31068 84.2735 5.94311C84.2735 6.57554 83.9215 6.87067 83.2187 6.87067H81.0456V7.29229C81.0456 7.72837 80.9678 8.19155 80.8135 8.68364C82.2765 9.41425 83.4158 10.1316 84.2313 10.8339C84.4984 11.0447 84.6322 11.2977 84.6322 11.5928C84.6322 11.888 84.5128 12.1132 84.2735 12.3096C84.1325 12.4505 83.9498 12.5204 83.725 12.5204C83.4857 12.5204 83.1765 12.3939 82.7967 12.1409C82.3326 11.7898 81.907 11.4946 81.52 11.2555C81.133 11.017 80.5736 10.6863 79.843 10.2647C79.1956 11.0236 78.2396 11.7687 76.9738 12.4993C76.6217 12.7101 76.3336 12.8155 76.1088 12.8155C75.8978 12.8155 75.7079 12.7312 75.5391 12.5625C75.3281 12.3517 75.2227 12.106 75.2227 11.8247H75.2233ZM80.0968 3.91933C79.2951 3.91933 78.7007 3.89463 78.3144 3.84524C77.9274 3.79646 77.579 3.67358 77.2697 3.47663L77.0166 3.32906C76.7489 3.16041 76.6157 2.92129 76.6157 2.6123C76.6157 2.38764 76.679 2.19068 76.8056 2.02204C77.0027 1.76906 77.2553 1.64258 77.5651 1.64258C77.7339 1.64258 77.9093 1.68474 78.0925 1.76906L78.3879 1.91663C78.6266 2.04312 79.1125 2.10636 79.8436 2.10636H82.2699C82.9589 2.10636 83.3037 2.41595 83.3037 3.03393C83.3037 3.6519 82.9516 3.91933 82.2488 3.91933H80.0968ZM90.6878 21.9436C90.3503 21.9436 90.0899 21.852 89.9072 21.6695C89.724 21.4864 89.6329 21.2268 89.6329 20.8895V16.9052C89.6329 16.8209 89.601 16.7474 89.5377 16.6836C89.4744 16.6203 89.4009 16.589 89.3165 16.589H80.2023C79.8647 16.589 79.6043 16.5047 79.4217 16.336C79.2384 16.1674 79.1474 15.9289 79.1474 15.6193C79.1474 15.3097 79.239 15.0712 79.4217 14.9025C79.6043 14.7339 79.8647 14.6496 80.2023 14.6496H90.3503C90.7999 14.6496 91.1592 14.7833 91.4262 15.0501C91.6933 15.3175 91.8271 15.6753 91.8271 16.1252V20.8895C91.8271 21.2268 91.7355 21.487 91.5528 21.6695C91.3696 21.852 91.1098 21.9436 90.7722 21.9436H90.6878ZM90.1815 13.0896C89.9982 12.9071 89.9072 12.6469 89.9072 12.3096V8.13553H87.5654V11.9934C87.5654 12.3307 87.4774 12.5909 87.3014 12.7734C87.1253 12.9565 86.8758 13.0474 86.5527 13.0474C86.2296 13.0474 85.9758 12.9565 85.7932 12.7734C85.6099 12.5909 85.5189 12.3307 85.5189 11.9934V3.18149C85.5189 2.8442 85.6099 2.584 85.7932 2.40149C85.9758 2.21899 86.229 2.12744 86.5527 2.12744C86.8764 2.12744 87.1253 2.21899 87.3014 2.40149C87.4774 2.5846 87.5654 2.8442 87.5654 3.18149V6.21716H89.9072V2.97068C89.9072 2.63339 89.9952 2.37319 90.1712 2.19068C90.3472 2.00818 90.604 1.91663 90.9416 1.91663C91.2792 1.91663 91.5142 2.00818 91.6909 2.19068C91.8663 2.37379 91.9549 2.63339 91.9549 2.97068V12.3096C91.9549 12.6469 91.8669 12.9071 91.6909 13.0896C91.5148 13.2727 91.2653 13.3636 90.9416 13.3636C90.6179 13.3636 90.3647 13.2727 90.1821 13.0896H90.1815Z" fill="#231F20"/>
</g>
<defs>
<linearGradient id="paint0_linear_911_2782" x1="10.7444" y1="-6.03182" x2="13.5135" y2="24.7467" gradientUnits="userSpaceOnUse">
<stop stop-color="#119C49"/>
<stop offset="1" stop-color="#0B6D38"/>
</linearGradient>
<linearGradient id="paint1_linear_911_2782" x1="41.6155" y1="29.383" x2="38.8464" y2="-1.39557" gradientUnits="userSpaceOnUse">
<stop stop-color="#119C49"/>
<stop offset="1" stop-color="#0B6D38"/>
</linearGradient>
<clipPath id="clip0_911_2782">
<rect width="35.9082" height="20.301" fill="white" transform="translate(56.0918 1.64258)"/>
</clipPath>
</defs>
</svg>
